/* XPM */
static char const * appicon32x32_xpm[] = {
"32 32 52 1",
" 	c None",
".	c #FFFFFF",
"+	c #CDDEEF",
"@	c #FEFEFE",
"#	c #7CB5EF",
"$	c #2A5887",
"%	c #B8C3ED",
"&	c #B3B5EF",
"*	c #1B5087",
"=	c #3F84CB",
"-	c #6682ED",
";	c #5790CB",
">	c #004287",
",	c #B9C3ED",
"'	c #B9C4ED",
")	c #DCE1F6",
"!	c #D8D9F6",
"~	c #CACBCE",
"{	c #FBFCFE",
"]	c #D8DEF5",
"^	c #EDEFFA",
"/	c #525252",
"(	c #A3A3A3",
"_	c #D4DDE7",
":	c #333333",
"<	c #000000",
"[	c #060608",
"}	c #CCCCCC",
"|	c #0E0E0E",
"1	c #303030",
"2	c #AAAAAA",
"3	c #808D9B",
"4	c #7A7A7A",
"5	c #14161A",
"6	c #181818",
"7	c #151F29",
"8	c #24262E",
"9	c #050506",
"0	c #272A33",
"a	c #121318",
"b	c #08090B",
"c	c #000101",
"d	c #191B21",
"e	c #2A2A2A",
"f	c #08121C",
"g	c #24272F",
"h	c #060D14",
"i	c #111A22",
"j	c #080C10",
"k	c #070707",
"l	c #262626",
"m	c #04090E",
"......+++++.............++++++..",
"...@+#$$$$$#..........##$$$$$$#+",
"....$%%%%%&$#........$$&&%%%&&#$",
"....$&%%%%%&$+.....+$&&%%%%%%%&$",
"....#*&%%%%#$+....+$&%%%%%%%%%$#",
"....+*&%%&$$$+....+$#%%%%%%%%%$+",
".....$#%&$=-$+....+$$%%%%%%%%%$+",
"....#$$$$;--$+....+$;$$%%%%%%%$.",
"#$$$$#>-----$+....+$--;$$$$;%%$.",
"$%%%%%>-----$#....#$------;$%$#.",
"$%%%%%>-----=$....$=------;$%$+.",
"$%%%%%>;-----$+...$-------;#%$+.",
"$&%%%%#>-----$#..+$-------$%&$..",
"$#%%%%%>------$++#$-------$%#$..",
"#$%%%%%>------=$$$;------;$%$#..",
"+$%%%%%>;----------------;#&$+..",
".$&%%%%#>;---------------$&#$...",
".$#%%%%&&>;--------------$$$#...",
".#$%%%%%&#>>;--------->>>$+.....",
".+$%,%'%%%&#>>>>>>>>>>#%).......",
".+$!.~{]%%%%%%%%%%%%%%%^/(......",
".+_/:<[/.%%%%%%%%%%%%%%.:.}<|12.",
"..3:4((5(%...(.%.((.%..(<.:/(46.",
"..(7(}4:..(890(.4<a4(8b4<.(}(46.",
"..(c<<:(.(54(:<.a/(}d/(<:}}(4e(.",
"...f((/g./<((4<(h(.(<}(<4}(46(..",
".(</}(46./<}(i((<}.4<}4j((<:4(..",
"../<<j6(../kl(.4<.../:<m(:<<<l(.",
"....................((....(.....",
"................................",
"................................",
"................................"};
